<?xml version="1.0" encoding="utf-8"?>
<!-- Generator: Adobe Illustrator 19.2.0, SVG Export Plug-In . SVG Version: 6.00 Build 0)  -->
<svg version="1.1"
	 id="Réteg_1" xmlns:cc="http://creativecommons.org/ns#" xmlns:dc="http://purl.org/dc/elements/1.1/" xmlns:inkscape="http://www.inkscape.org/namespaces/inkscape" xmlns:rdf="http://www.w3.org/1999/02/22-rdf-syntax-ns#" xmlns:sodipodi="http://sodipodi.sourceforge.net/DTD/sodipodi-0.dtd" xmlns:svg="http://www.w3.org/2000/svg"
	 xmlns="http://www.w3.org/2000/svg" xmlns:xlink="http://www.w3.org/1999/xlink" x="0px" y="0px" viewBox="0 0 14 20"
	 style="enable-background:new 0 0 14 20;" xml:space="preserve">
<g transform="translate(0,-24)">
	<g transform="matrix(2,0,0,2,-2,-35.464102)">
		<path d="M4.5,29.7c-1.9,0-3.5,1.6-3.5,3.5c0,0.3,0,0.7,0.2,1.1c0.8,2.2,3.3,5.4,3.3,5.4s2.5-3.2,3.3-5.4C8,33.9,8,33.5,8,33.2
			C8,31.3,6.4,29.7,4.5,29.7z M4.5,32.1c0.6,0,1.2,0.5,1.2,1.2c0,0,0,0,0,0c0,0.6-0.5,1.2-1.2,1.2c0,0,0,0,0,0
			c-0.6,0-1.2-0.5-1.2-1.2c0,0,0,0,0,0C3.3,32.6,3.9,32.1,4.5,32.1C4.5,32.1,4.5,32.1,4.5,32.1z"/>
	</g>
</g>
</svg>
